<svg xmlns="http://www.w3.org/2000/svg" xmlns:xlink="http://www.w3.org/1999/xlink" version="1.1" x="0px" y="0px" viewBox="0 0 100 125" style="enable-background:new 0 0 100 100;" xml:space="preserve"><style type="text/css">
	.st0{display:none;}
	.st1{display:inline;}
	.st2{fill:none;stroke:#231F20;stroke-width:5;stroke-linejoin:round;stroke-miterlimit:10;}
	.st3{fill:none;stroke:#000000;stroke-width:3;stroke-linejoin:round;stroke-miterlimit:10;}
	.st4{fill:none;stroke:#000000;stroke-width:3;stroke-miterlimit:10;}
</style><g><rect x="15.2" y="45.6" width="26" height="5"/><rect x="20.2" y="37.7" width="26" height="5"/><path d="M37.3,67.3c-4,0-7.3,3.3-7.3,7.3s3.3,7.3,7.3,7.3s7.3-3.3,7.3-7.3S41.3,67.3,37.3,67.3z M37.3,77c-1.3,0-2.3-1-2.3-2.3   s1-2.3,2.3-2.3s2.3,1,2.3,2.3S38.6,77,37.3,77z"/><path d="M55.2,67.3c-4,0-7.3,3.3-7.3,7.3s3.3,7.3,7.3,7.3s7.3-3.3,7.3-7.3S59.2,67.3,55.2,67.3z M55.2,77c-1.3,0-2.3-1-2.3-2.3   s1-2.3,2.3-2.3c1.3,0,2.3,1,2.3,2.3S56.4,77,55.2,77z"/><path d="M87.1,32.9c-0.4-0.9-1.3-1.5-2.3-1.5H38.7l4-9.9c0.3-0.8,0.2-1.6-0.2-2.3c-0.5-0.7-1.2-1.1-2.1-1.1h-8.5v5h4.8l-4,9.9l0,0   c-0.1,0.3-0.2,0.6-0.2,0.9c0,1.4,1.1,2.5,2.5,2.5h44.1L64.7,51.9H35c-1.1,0-2,0.7-2.3,1.6l0,0l-3.1,8c-0.3,0.8-0.2,1.6,0.3,2.3   c0.5,0.7,1.2,1.1,2.1,1.1h29.8v-5H35.5l1.2-3h29.2c0.7,0,1.4-0.3,1.8-0.8l19-20.5C87.3,34.9,87.5,33.8,87.1,32.9z"/></g><text x="0" y="115" fill="#000000" font-size="5px" font-weight="bold" font-family="'Helvetica Neue', Helvetica, Arial-Unicode, Arial, Sans-serif">Created by arloenl evinniev</text><text x="0" y="120" fill="#000000" font-size="5px" font-weight="bold" font-family="'Helvetica Neue', Helvetica, Arial-Unicode, Arial, Sans-serif">from the Noun Project</text></svg>