<svg xmlns="http://www.w3.org/2000/svg" xmlns:xlink="http://www.w3.org/1999/xlink" version="1.1" x="0px" y="0px" viewBox="0 0 100 125" enable-background="new 0 0 100 100" xml:space="preserve"><g><path fill="none" d="M75.38,63.695c-7.553,0-13.696,6.145-13.696,13.696s6.144,13.695,13.696,13.695   c7.552,0,13.695-6.144,13.695-13.695S82.932,63.695,75.38,63.695z M80.789,81.881c-0.219,0.517-0.521,0.976-0.911,1.376   c-0.39,0.404-0.851,0.741-1.38,1.006c-0.532,0.268-1.115,0.46-1.749,0.568v1.417c0,0.291-0.157,0.437-0.474,0.437h-1.86   c-0.291,0-0.437-0.146-0.437-0.437v-1.444c-0.521-0.113-1.024-0.284-1.513-0.515s-0.952-0.505-1.387-0.821   c-0.265-0.191-0.487-0.379-0.668-0.566c-0.182-0.185-0.326-0.333-0.431-0.443l-0.029-0.031c-0.006-0.01-0.014-0.019-0.02-0.023   c-0.007-0.003-0.015-0.009-0.021-0.017c-0.007-0.012-0.014-0.022-0.021-0.022c-0.006-0.005-0.012-0.01-0.018-0.016   c-0.154-0.165-0.229-0.297-0.229-0.397c0-0.111,0.074-0.236,0.229-0.375l1.712-1.633c0.14-0.102,0.25-0.149,0.335-0.149   c0.061,0,0.122,0.02,0.188,0.063c0.065,0.038,0.146,0.096,0.237,0.177c0.113,0.092,0.256,0.217,0.432,0.371   c0.175,0.156,0.373,0.309,0.599,0.46c0.336,0.224,0.669,0.397,0.998,0.524c0.331,0.125,0.677,0.188,1.041,0.188   c0.336,0,0.619-0.04,0.844-0.112c0.229-0.075,0.408-0.18,0.541-0.302c0.134-0.126,0.227-0.271,0.281-0.437   c0.057-0.165,0.086-0.339,0.086-0.524c0-0.204-0.079-0.388-0.232-0.549c-0.155-0.162-0.346-0.305-0.57-0.431   c-0.224-0.126-0.458-0.233-0.702-0.324c-0.244-0.087-0.457-0.161-0.634-0.223c-0.792-0.274-1.485-0.571-2.078-0.895   c-0.596-0.32-1.089-0.678-1.486-1.068c-0.393-0.394-0.692-0.824-0.889-1.296c-0.199-0.474-0.298-1-0.298-1.578   c0-0.509,0.087-0.976,0.258-1.406c0.172-0.428,0.415-0.813,0.731-1.149c0.318-0.336,0.705-0.619,1.163-0.856   c0.46-0.232,0.975-0.407,1.549-0.517v-1.378c0-0.119,0.037-0.22,0.11-0.308c0.072-0.083,0.181-0.126,0.326-0.126h1.86   c0.1,0,0.201,0.038,0.311,0.117c0.111,0.081,0.163,0.184,0.163,0.316v1.325c0.372,0.069,0.732,0.162,1.086,0.285   c0.353,0.12,0.704,0.277,1.055,0.47c0.223,0.132,0.436,0.268,0.637,0.41c0.202,0.142,0.378,0.277,0.53,0.41   s0.271,0.256,0.359,0.376c0.089,0.119,0.136,0.224,0.136,0.308c0,0.087-0.022,0.164-0.065,0.238   c-0.042,0.071-0.106,0.155-0.192,0.246l-1.516,1.613c-0.11,0.112-0.224,0.167-0.335,0.167c-0.092,0-0.177-0.024-0.253-0.076   c-0.075-0.056-0.16-0.119-0.253-0.201l-0.089-0.077c-0.132-0.112-0.278-0.23-0.441-0.346c-0.161-0.12-0.335-0.228-0.519-0.324   c-0.185-0.094-0.38-0.174-0.584-0.235c-0.204-0.065-0.412-0.094-0.623-0.094c-0.216,0-0.423,0.016-0.613,0.052   c-0.192,0.038-0.36,0.097-0.507,0.175c-0.144,0.081-0.26,0.184-0.345,0.311c-0.087,0.129-0.128,0.287-0.128,0.472   c0,0.184,0.045,0.345,0.138,0.478c0.094,0.137,0.23,0.263,0.415,0.381c0.187,0.112,0.416,0.222,0.688,0.324   c0.273,0.101,0.592,0.214,0.956,0.331c0.697,0.232,1.343,0.476,1.934,0.728c0.591,0.255,1.102,0.552,1.529,0.901   c0.428,0.347,0.764,0.76,1.006,1.242c0.239,0.481,0.36,1.066,0.36,1.752C81.115,80.793,81.007,81.358,80.789,81.881z"/><path d="M28.988,37.778c1.39,3.786,3.505,7.468,6.11,10.359c0.677,0.751,1.396,1.43,2.135,2.062   c0.202,0.173,0.397,0.36,0.604,0.522c2.501,1.973,5.305,3.194,8.273,3.194c2.95,0,5.738-1.206,8.226-3.156   c0.168-0.132,0.327-0.286,0.493-0.425c0.772-0.647,1.521-1.35,2.226-2.127c2.641-2.91,4.785-6.633,6.188-10.46   c1.175-0.349,2.407-2.578,2.909-5.423c0.545-3.095,0.029-5.794-1.153-6.236c-0.056-1.005-0.149-2.021-0.289-3.036   c-0.476-8.749-3.148-12.659-7.098-14.404C54.814,6.401,51.074,5,46.11,5c-4.951,0-8.678,1.366-11.464,3.562   c-4.351,1.827-7.198,6.177-7.36,16.499c-0.027,0.329-0.048,0.654-0.067,0.98c-1.29,0.252-1.876,3.054-1.307,6.284   C26.438,35.305,27.766,37.604,28.988,37.778z"/><path d="M85.789,63.222c-2.92-2.151-6.513-3.439-10.409-3.439c-1.274,0-2.514,0.144-3.712,0.401   c-3.737-0.778-8.134-2.026-13.031-5.811c-0.069,2.601-5.683,4.701-12.605,4.701c-6.923,0-12.536-2.101-12.604-4.701   C17.609,66.597,7.012,52.363,7.012,81.3c0,7.928,21.163,11.743,38.941,11.743c0.027,0,0.054,0,0.079,0c0.026,0,0.053,0,0.078,0   c6.249,0,12.914-0.474,18.932-1.429c1.782,1.299,3.813,2.267,6.012,2.826C72.44,94.793,73.885,95,75.38,95   c9.709,0,17.608-7.899,17.608-17.608C92.988,71.579,90.146,66.431,85.789,63.222z M75.38,91.087   c-7.553,0-13.696-6.144-13.696-13.695s6.144-13.696,13.696-13.696c7.552,0,13.695,6.145,13.695,13.696S82.932,91.087,75.38,91.087z   "/><path d="M79.749,77.178c-0.428-0.35-0.938-0.646-1.529-0.901c-0.591-0.252-1.236-0.495-1.934-0.728   c-0.364-0.117-0.683-0.23-0.956-0.331c-0.272-0.103-0.502-0.212-0.688-0.324c-0.185-0.118-0.321-0.244-0.415-0.381   c-0.093-0.133-0.138-0.294-0.138-0.478c0-0.185,0.041-0.343,0.128-0.472c0.085-0.127,0.201-0.229,0.345-0.311   c0.146-0.078,0.314-0.137,0.507-0.175c0.19-0.036,0.397-0.052,0.613-0.052c0.211,0,0.419,0.028,0.623,0.094   c0.204,0.062,0.399,0.142,0.584,0.235c0.184,0.097,0.357,0.204,0.519,0.324c0.163,0.115,0.31,0.233,0.441,0.346l0.089,0.077   c0.093,0.082,0.178,0.146,0.253,0.201c0.076,0.052,0.161,0.076,0.253,0.076c0.111,0,0.225-0.055,0.335-0.167l1.516-1.613   c0.086-0.091,0.15-0.175,0.192-0.246c0.043-0.074,0.065-0.151,0.065-0.238c0-0.084-0.047-0.188-0.136-0.308   c-0.088-0.12-0.207-0.243-0.359-0.376s-0.328-0.269-0.53-0.41c-0.201-0.143-0.414-0.278-0.637-0.41   c-0.351-0.192-0.702-0.35-1.055-0.47c-0.354-0.123-0.714-0.216-1.086-0.285v-1.325c0-0.133-0.052-0.235-0.163-0.316   c-0.109-0.079-0.211-0.117-0.311-0.117h-1.86c-0.146,0-0.254,0.043-0.326,0.126c-0.073,0.088-0.11,0.188-0.11,0.308v1.378   c-0.574,0.109-1.089,0.284-1.549,0.517c-0.458,0.237-0.845,0.521-1.163,0.856c-0.316,0.337-0.56,0.722-0.731,1.149   c-0.171,0.431-0.258,0.897-0.258,1.406c0,0.578,0.099,1.104,0.298,1.578c0.196,0.472,0.496,0.902,0.889,1.296   c0.397,0.391,0.891,0.748,1.486,1.068c0.593,0.323,1.286,0.62,2.078,0.895c0.177,0.062,0.39,0.136,0.634,0.223   c0.244,0.091,0.479,0.198,0.702,0.324c0.225,0.126,0.415,0.269,0.57,0.431c0.153,0.161,0.232,0.345,0.232,0.549   c0,0.186-0.029,0.359-0.086,0.524c-0.055,0.165-0.147,0.311-0.281,0.437c-0.133,0.122-0.313,0.227-0.541,0.302   c-0.225,0.072-0.508,0.112-0.844,0.112c-0.364,0-0.71-0.063-1.041-0.188c-0.329-0.127-0.662-0.301-0.998-0.524   c-0.226-0.151-0.424-0.304-0.599-0.46c-0.176-0.154-0.318-0.279-0.432-0.371c-0.092-0.081-0.172-0.139-0.237-0.177   c-0.066-0.043-0.128-0.063-0.188-0.063c-0.085,0-0.195,0.048-0.335,0.149l-1.712,1.633c-0.154,0.139-0.229,0.264-0.229,0.375   c0,0.101,0.074,0.232,0.229,0.397c0.006,0.006,0.012,0.011,0.018,0.016c0.007,0,0.014,0.011,0.021,0.022   c0.006,0.008,0.014,0.014,0.021,0.017c0.006,0.005,0.014,0.014,0.02,0.023l0.029,0.031c0.104,0.11,0.249,0.259,0.431,0.443   c0.181,0.188,0.403,0.375,0.668,0.566c0.435,0.316,0.898,0.591,1.387,0.821s0.992,0.401,1.513,0.515v1.444   c0,0.291,0.146,0.437,0.437,0.437h1.86c0.316,0,0.474-0.146,0.474-0.437v-1.417c0.634-0.108,1.217-0.301,1.749-0.568   c0.529-0.265,0.99-0.602,1.38-1.006c0.39-0.4,0.692-0.859,0.911-1.376c0.218-0.522,0.326-1.088,0.326-1.709   c0-0.686-0.121-1.271-0.36-1.752C80.513,77.938,80.177,77.524,79.749,77.178z"/></g><text x="0" y="115" fill="#000000" font-size="5px" font-weight="bold" font-family="'Helvetica Neue', Helvetica, Arial-Unicode, Arial, Sans-serif">Created by Wilson Joseph</text><text x="0" y="120" fill="#000000" font-size="5px" font-weight="bold" font-family="'Helvetica Neue', Helvetica, Arial-Unicode, Arial, Sans-serif">from the Noun Project</text></svg>