<svg xmlns="http://www.w3.org/2000/svg" xmlns:xlink="http://www.w3.org/1999/xlink" version="1.1" x="0px" y="0px" viewBox="0 0 48 60" enable-background="new 0 0 48 48" xml:space="preserve"><g><path fill="#000000" d="M18.538,28.167h10.35c0.553,0,1-0.447,1-1s-0.447-1-1-1h-10.35c-0.552,0-1,0.447-1,1   S17.986,28.167,18.538,28.167z"/><path fill="#000000" d="M27.056,30.959c0-0.553-0.447-1-1-1h-7.518c-0.552,0-1,0.447-1,1s0.448,1,1,1h7.518   C26.608,31.959,27.056,31.512,27.056,30.959z"/><path fill="#000000" d="M15.171,26.46l-2.855,2.856l-1.127-1.127c-0.391-0.391-1.023-0.391-1.414,0s-0.391,1.023,0,1.414   l1.834,1.834c0.188,0.188,0.442,0.293,0.707,0.293s0.52-0.105,0.707-0.293l3.563-3.563c0.391-0.391,0.391-1.023,0-1.414   S15.562,26.069,15.171,26.46z"/><path fill="#000000" d="M18.538,15.896h10.35c0.553,0,1-0.448,1-1s-0.447-1-1-1h-10.35c-0.552,0-1,0.448-1,1   S17.986,15.896,18.538,15.896z"/><path fill="#000000" d="M18.538,19.688h7.518c0.553,0,1-0.448,1-1s-0.447-1-1-1h-7.518c-0.552,0-1,0.448-1,1   S17.986,19.688,18.538,19.688z"/><path fill="#000000" d="M10.691,19.166c0.195,0.195,0.451,0.293,0.707,0.293s0.512-0.098,0.707-0.293l1.074-1.074l1.074,1.074   c0.195,0.195,0.451,0.293,0.707,0.293s0.512-0.098,0.707-0.293c0.391-0.391,0.391-1.023,0-1.414l-1.074-1.074l1.074-1.075   c0.391-0.391,0.391-1.024,0-1.414c-0.391-0.391-1.023-0.391-1.414,0l-1.074,1.075l-1.074-1.074c-0.391-0.391-1.023-0.391-1.414,0   s-0.391,1.023,0,1.414l1.074,1.074l-1.074,1.074C10.301,18.143,10.301,18.776,10.691,19.166z"/><path fill="#000000" d="M45.269,22.245l-3.265-3.265c-0.188-0.188-0.441-0.293-0.707-0.293s-0.52,0.105-0.707,0.293l-2.658,2.658   l0,0c0,0,0,0,0,0l-3.705,3.705V6.751c0-0.265-0.105-0.52-0.293-0.707l-2.578-2.578c-0.375-0.375-1.039-0.375-1.414,0l-2.064,2.065   l-2.085-2.085c-0.391-0.391-1.023-0.391-1.414,0l-1.938,1.938L20.57,3.513c-0.188-0.188-0.442-0.293-0.708-0.293   c-0.265,0-0.52,0.105-0.707,0.293l-2.14,2.139l-2.085-2.085c-0.375-0.375-1.039-0.375-1.414,0l-2.004,2.005L9.481,3.541   c-0.391-0.39-1.023-0.39-1.414,0l-2.631,2.63C5.249,6.358,5.143,6.613,5.143,6.878v36.657c0,0.553,0.448,1,1,1h27.083   c0.553,0,1-0.447,1-1v-8.834l11.042-11.042C45.659,23.269,45.659,22.636,45.269,22.245z M32.521,33.579   c-0.001,0.001-0.001,0.001-0.002,0.002l-4.862,4.862l-2.528,0.678l0.678-2.528l12.833-12.833l1.852,1.85L32.521,33.579z    M32.227,42.535H7.143V7.292l1.631-1.63l2.032,2.031c0.391,0.39,1.024,0.39,1.414,0l2.004-2.004l2.085,2.084   c0.391,0.391,1.023,0.391,1.414,0l2.139-2.139l1.869,1.871c0.188,0.188,0.442,0.293,0.708,0.293c0.265,0,0.52-0.105,0.707-0.293   l1.939-1.938l2.085,2.085c0.375,0.375,1.039,0.375,1.414,0l2.064-2.065l1.578,1.578v20.179l-8.024,8.024   c-0.124,0.124-0.213,0.278-0.259,0.448l-1.196,4.461c-0.093,0.345,0.006,0.713,0.259,0.966c0.19,0.19,0.445,0.293,0.707,0.293   c0.086,0,0.173-0.011,0.259-0.034l4.461-1.196c0.17-0.045,0.324-0.135,0.448-0.259l3.346-3.346V42.535z M41.904,24.195l-1.852-1.85   l1.244-1.244l1.851,1.851L41.904,24.195z"/></g><text x="0" y="63" fill="#000000" font-size="5px" font-weight="bold" font-family="'Helvetica Neue', Helvetica, Arial-Unicode, Arial, Sans-serif">Created by Lee</text><text x="0" y="68" fill="#000000" font-size="5px" font-weight="bold" font-family="'Helvetica Neue', Helvetica, Arial-Unicode, Arial, Sans-serif">from the Noun Project</text></svg>