<svg xmlns="http://www.w3.org/2000/svg" xmlns:xlink="http://www.w3.org/1999/xlink" version="1.1" x="0px" y="0px" viewBox="0 0 100 125" enable-background="new 0 0 100 100" xml:space="preserve"><path d="M45.424,69.564l-10.39,12.246l-6.639-5.283c-0.646-0.516-1.592-0.407-2.107,0.24c-0.516,0.648-0.408,1.592,0.24,2.107  l7.775,6.188c0.275,0.22,0.605,0.326,0.933,0.326c0.426,0,0.849-0.181,1.145-0.529l11.33-13.354  c0.536-0.632,0.459-1.578-0.173-2.114C46.904,68.854,45.96,68.934,45.424,69.564z M50.076,56.276c0.364,0,0.729-0.132,1.019-0.398  l4.835-4.469l3.709,2.277c0.705,0.434,1.63,0.214,2.063-0.493c0.434-0.706,0.213-1.63-0.493-2.063l-4.678-2.872  c-0.575-0.352-1.31-0.28-1.804,0.177l-5.67,5.24c-0.608,0.563-0.646,1.512-0.083,2.12C49.271,56.114,49.673,56.276,50.076,56.276z   M95.833,18.188L32.964,1.898c-0.387-0.1-0.795-0.043-1.137,0.159c-0.343,0.202-0.592,0.532-0.691,0.917l-4.274,16.503H4.543  c-0.828,0-1.5,0.672-1.5,1.5v63.667c0,0.829,0.672,1.5,1.5,1.5h13.564c3.36,7.083,10.562,12.005,18.908,12.005  s15.547-4.922,18.907-12.005h13.565c0.828,0,1.5-0.671,1.5-1.5v-4.025l8.124,2.105c0.124,0.032,0.25,0.048,0.376,0.048  c0.266,0,0.528-0.07,0.761-0.207c0.343-0.202,0.592-0.531,0.691-0.916l15.969-61.632C97.117,19.215,96.635,18.396,95.833,18.188z   M37.016,95.149c-9.891,0-17.938-8.047-17.938-17.938s8.047-17.938,17.938-17.938s17.937,8.047,17.937,17.938  S46.906,95.149,37.016,95.149z M33.816,43.268l-4.174-3.994c-0.529-0.507-1.349-0.558-1.936-0.118L11.393,51.356v-2.281l17.1-12.965  l17.141,16.406c0.289,0.277,0.663,0.416,1.037,0.416c0.354,0,0.71-0.125,0.994-0.376l8.17-7.229l6.805,4.845v14.639h-8.792  c-3.816-5.166-9.93-8.537-16.831-8.537s-13.015,3.371-16.831,8.537h-8.792V54.46c0.104,0.021,0.208,0.035,0.313,0.035  c0.313,0,0.628-0.097,0.897-0.299l15.883-11.878l3.256,3.116c0.599,0.572,1.547,0.551,2.121-0.047  C34.436,44.789,34.415,43.84,33.816,43.268z M11.393,45.311V27.828h51.246V46.49l-6.036-4.297c-0.568-0.404-1.342-0.364-1.864,0.099  l-8.028,7.103L29.643,33.059c-0.533-0.512-1.356-0.558-1.943-0.112L11.393,45.311z M67.988,83.145H57.083  c0.558-1.883,0.869-3.871,0.869-5.933c0-3.382-0.824-6.569-2.255-9.4h8.441c0.828,0,1.5-0.671,1.5-1.5V26.328  c0-0.828-0.672-1.5-1.5-1.5H9.893c-0.828,0-1.5,0.672-1.5,1.5v39.983c0,0.829,0.672,1.5,1.5,1.5h8.44  c-1.431,2.831-2.255,6.019-2.255,9.4c0,2.062,0.312,4.05,0.869,5.933H6.043V22.478h61.945V83.145z M35.486,19.478l2.016-7.777  l30.016,7.777H35.486z M70.841,20.339l16.269,4.216L82.428,42.62l-4.766-5.675c-0.45-0.534-1.206-0.688-1.829-0.372l-4.845,2.467  V20.978C70.988,20.748,70.933,20.533,70.841,20.339z M79.881,46.753L76.072,42.8c-0.467-0.484-1.197-0.601-1.789-0.281l-3.295,1.768  v-1.879l5.144-2.619l5.372,6.396l-3.672,14.171l-6.844-1.773V47.69l3.712-1.991l3.021,3.135c0.294,0.306,0.687,0.459,1.08,0.459  c0.375,0,0.75-0.139,1.041-0.42C80.438,48.299,80.456,47.349,79.881,46.753z M78.412,79.444l-7.424-1.925V61.682l7.544,1.954  c0.126,0.033,0.253,0.049,0.377,0.049c0.667,0,1.276-0.448,1.451-1.124L90.39,23.855c0.1-0.386,0.042-0.795-0.159-1.138  c-0.202-0.343-0.531-0.591-0.917-0.691L36.802,8.42C36,8.213,35.181,8.694,34.974,9.496l-2.587,9.981h-2.426l3.703-14.299  l59.965,15.538L78.412,79.444z"/><text x="0" y="115" fill="#000000" font-size="5px" font-weight="bold" font-family="'Helvetica Neue', Helvetica, Arial-Unicode, Arial, Sans-serif">Created by Deepz</text><text x="0" y="120" fill="#000000" font-size="5px" font-weight="bold" font-family="'Helvetica Neue', Helvetica, Arial-Unicode, Arial, Sans-serif">from the Noun Project</text></svg>