<svg xmlns="http://www.w3.org/2000/svg" xmlns:xlink="http://www.w3.org/1999/xlink" version="1.1" x="0px" y="0px" viewBox="0 0 100 125" enable-background="new 0 0 100 100" xml:space="preserve"><path d="M44.698,65.321c-0.114-0.907-0.454-2.156-1.363-3.065c-0.681-0.681-1.704-1.136-2.952-1.362  c-1.136-0.114-1.704,0.454-1.704,0.454l-7.609,7.609c0,0-0.795,0.682-1.136,1.817c-0.341,1.249-0.114,2.045,0.227,2.498  c0.227,0.341,0.454,0.683,0.795,0.909c0.341,0.342,0.682,0.681,1.136,0.909c0.341,0.227,1.136,0.568,2.044,0.453  c1.342-0.125,2.293-1.151,2.293-1.151l7.702-7.596C44.13,66.799,44.698,66.231,44.698,65.321z M36.747,57.735  c-0.114-0.91-0.455-2.156-1.363-3.065c-0.682-0.684-1.704-1.137-2.953-1.362c-1.136-0.115-1.704,0.452-1.704,0.452l-7.609,7.609  c0,0-0.795,0.683-1.136,1.818c-0.341,1.25-0.114,2.045,0.227,2.498c0.228,0.342,0.455,0.684,0.795,0.909  c0.341,0.342,0.682,0.683,1.136,0.91c0.341,0.226,1.136,0.567,2.044,0.452c1.342-0.123,2.293-1.153,2.293-1.153l7.702-7.594  C36.179,59.21,36.747,58.643,36.747,57.735z M95.766,31.49C93.949,17.973,81.193,7.084,65.34,9.681  c-11.168,1.234-18.336,9.214-18.336,9.214L32.449,33.088c5.584,5.514,10.597,5.514,14.892,2.583l10.903-10.676l30.073,29.907  C95.249,45.984,96.675,38.531,95.766,31.49z M58.131,29.879l-8.406,8.291c-3.975,3.748-11.711,4.884-19.548-2.044l-3.108-2.779  l19.93-19.028c-0.113-0.114-18.903-13.434-35.925,3.269c-6.02,6.815-8.169,13.728-6.58,22.133  c1.927,9.718,8.93,17.688,13.473,21.889l2.311-2.196c0.227-0.226,0.454-0.34,0.568-0.452l9.2-8.634c0,0,0.641-0.552,1.817-0.568  c2.385-0.114,3.975,0.454,5.338,1.591c2.044,1.704,2.726,4.317,2.953,6.021c2.271,0.227,4.202,1.021,5.565,2.498  c1.704,1.703,2.271,3.976,2.385,5.451c2.271,0.228,4.202,1.021,5.566,2.499c1.588,1.704,2.271,3.748,2.498,5.226  c3.175,0.31,5.291,1.885,6.427,3.614c0.532,0.808,3.029,0.695,4.508-0.44c1.477-1.25,2.271-4.089,0.452-6.132L48.134,51.005  c-0.682-0.683-0.682-1.704,0-2.386c0.682-0.683,1.704-0.683,2.386,0l19.194,19.194c2.954,2.84,7.608,0.568,6.589-3.18  c-0.342-1.136-1.363-2.271-1.363-2.271L55.858,43.279c-0.684-0.682-0.684-1.704,0-2.385c0.681-0.683,1.704-0.683,2.385,0  l19.423,19.308c0,0,1.362,1.479,3.292,1.251c2.727-0.341,4.885-3.18,3.182-5.794L58.131,29.879z M56.686,76.966  c-1.495-0.174-2.104,0.51-2.104,0.51l-7.837,7.496c-0.341,0.341-1.022,1.477-0.681,2.952c0.254,0.989,1.136,1.932,1.817,2.387  c1.363,0.909,3.651,0.497,4.898-0.408c1.252-1.021,4.225-4.057,5.36-5.082c1.25-1.251,2.464-2.233,2.464-3.938  C60.599,79.503,59.75,77.322,56.686,76.966z M52.582,73.939c-0.116-1.021-0.388-2.256-1.523-3.392  c-0.796-0.796-1.819-1.364-3.183-1.478c-1.022,0-1.363,0.342-1.363,0.342l-7.496,7.383c0,0-0.909,0.907-1.136,2.043  c-0.382,2.595,2.04,3.877,2.814,4.154c2.246,0.923,3.773-0.405,3.773-0.405l7.499-7.268C52.35,74.956,52.582,74.623,52.582,73.939z"/><text x="0" y="115" fill="#000000" font-size="5px" font-weight="bold" font-family="'Helvetica Neue', Helvetica, Arial-Unicode, Arial, Sans-serif">Created by Thengakola</text><text x="0" y="120" fill="#000000" font-size="5px" font-weight="bold" font-family="'Helvetica Neue', Helvetica, Arial-Unicode, Arial, Sans-serif">from the Noun Project</text></svg>