<svg xmlns="http://www.w3.org/2000/svg" xmlns:xlink="http://www.w3.org/1999/xlink" version="1.1" x="0px" y="0px" viewBox="0 0 59 75" style="enable-background:new 0 0 59 60;" xml:space="preserve"><title>94 -Phonebook- (Outline)</title><desc>Created with Sketch.</desc><g><g transform="translate(-479.000000, -1430.000000)"><g transform="translate(479.000000, 1430.000000)"><path d="M43,58H17c-1.1,0-2-0.9-2-2V4c0-1.1,0.9-2,2-2H43c1.1,0,2,0.9,2,2V56C45,57.1,44.1,58,43,58z M43,60     c2.2,0,4-1.8,4-4V4c0-2.2-1.8-4-4-4H17c-2.2,0-4,1.8-4,4V56c0,2.2,1.8,4,4,4H43z"/><path d="M13,52h34V6H13V52z M15,8h30v42H15V8z"/><path d="M29,5h5c0.6,0,1-0.4,1-1s-0.4-1-1-1h-5c-0.6,0-1,0.4-1,1S28.4,5,29,5z"/><path d="M25,5h1c0.6,0,1-0.4,1-1s-0.4-1-1-1h-1c-0.6,0-1,0.4-1,1S24.4,5,25,5z"/><path d="M12,10v1c0,0.6,0.4,1,1,1s1-0.4,1-1v-1c0-0.6-0.4-1-1-1S12,9.4,12,10z"/><path d="M12,14v1c0,0.6,0.4,1,1,1s1-0.4,1-1v-1c0-0.6-0.4-1-1-1S12,13.4,12,14z"/><path d="M12,18v1c0,0.6,0.4,1,1,1s1-0.4,1-1v-1c0-0.6-0.4-1-1-1S12,17.4,12,18z"/><path d="M32,55c0,1.1-0.9,2-2,2s-2-0.9-2-2s0.9-2,2-2S32,53.9,32,55z M34,55c0-2.2-1.8-4-4-4s-4,1.8-4,4     s1.8,4,4,4S34,57.2,34,55z"/><path d="M21,41h4c0.6,0,1-0.4,1-1V18c0-0.6-0.4-1-1-1h-4c-0.6,0-1,0.4-1,1v22C20,40.6,20.4,41,21,41z M22,19h2     v20h-2V19z"/><path d="M25,41h14c0.6,0,1-0.4,1-1V18c0-0.6-0.4-1-1-1H25c-0.6,0-1,0.4-1,1v22C24,40.6,24.4,41,25,41z M26,19     h12v20H26V19z"/><path d="M29,27h6c0.6,0,1-0.4,1-1v-4c0-0.6-0.4-1-1-1h-6c-0.6,0-1,0.4-1,1v4C28,26.6,28.4,27,29,27z M30,25v-2     h4v2H30z"/><path d="M29,32h6c0.6,0,1-0.4,1-1s-0.4-1-1-1h-6c-0.6,0-1,0.4-1,1S28.4,32,29,32z"/><path d="M29,36h6c0.6,0,1-0.4,1-1s-0.4-1-1-1h-6c-0.6,0-1,0.4-1,1S28.4,36,29,36z"/><path d="M9,4C7.3,4,6,2.7,6,1c0-1.3-2-1.3-2,0c0,1.7-1.3,3-3,3c-1.3,0-1.3,2,0,2c1.7,0,3,1.3,3,3c0,1.3,2,1.3,2,0     c0-1.7,1.3-3,3-3C10.3,6,10.3,4,9,4z M5,6C4.7,5.6,4.4,5.3,4,5c0.4-0.3,0.7-0.6,1-1c0.3,0.4,0.6,0.7,1,1C5.6,5.3,5.3,5.6,5,6z"/><path d="M55,19v-4c0-0.6-0.4-1-1-1s-1,0.4-1,1v4c0,0.6,0.4,1,1,1S55,19.6,55,19z"/><path d="M52,18h4c0.6,0,1-0.4,1-1s-0.4-1-1-1h-4c-0.6,0-1,0.4-1,1S51.4,18,52,18z"/><path d="M8,44c0,0.6-0.4,1-1,1s-1-0.4-1-1s0.4-1,1-1S8,43.4,8,44"/><path d="M3,26c0,0.6-0.4,1-1,1s-1-0.4-1-1s0.4-1,1-1S3,25.4,3,26"/><path d="M52,36c0,0.6-0.4,1-1,1s-1-0.4-1-1s0.4-1,1-1S52,35.4,52,36"/><path d="M59,57c0,0.6-0.4,1-1,1s-1-0.4-1-1s0.4-1,1-1S59,56.4,59,57"/></g></g></g><text x="0" y="75" fill="#000000" font-size="5px" font-weight="bold" font-family="'Helvetica Neue', Helvetica, Arial-Unicode, Arial, Sans-serif">Created by Oliviu Stoian</text><text x="0" y="80" fill="#000000" font-size="5px" font-weight="bold" font-family="'Helvetica Neue', Helvetica, Arial-Unicode, Arial, Sans-serif">from the Noun Project</text></svg>